# xmcd
#
# Track frame offsets:
#	150
#	13363
#	29568
#	44118
#	55065
#	67935
#	85868
#	97870
#	113558
#	125183
#	140778
#	152325
#	169300
#	183100
#	197845
#	213268
#	225645
#	244400
#
# Disc length: 3431 seconds
#
# Revision: 1
# Processed by: cddbd v1.5.1PL2 Copyright (c) Steve Scherf et al.
# Submitted via: audiograbber 1.83.01
#
DISCID=fe0d6512
DTITLE=циыяцос лаяцаяитгс  - та йакутеяа
DYEAR=1990
DGENRE=каийа
TTITLE0=ови писыцуяислата 
TTITLE1=сто йеки тяиамта тяиа 
TTITLE2=стоу паяадеисоу тгм поята 
TTITLE3=лиа ацапг пехаимеи 
TTITLE4=то потали 
TTITLE5=йаулемг лоу йаядиа 
TTITLE6=г бакитса 
TTITLE7=еккада еимаи лиа 
TTITLE8=осои адийгсам 
TTITLE9=о ацмыстос 
TTITLE10=ецы еилаи ломос лоу 
TTITLE11=есу дем еисаи еяытас 
TTITLE12=г акама 
TTITLE13=еисаи атекеиытг 
TTITLE14=о маутийос 
TTITLE15=та кеуйа та йоййакайиа 
TTITLE16=то лоияаио яамтебоу 
TTITLE17=аваяистг 
EXTD=
EXTT0=
EXTT1=
EXTT2=
EXTT3=
EXTT4=
EXTT5=
EXTT6=
EXTT7=
EXTT8=
EXTT9=
EXTT10=
EXTT11=
EXTT12=
EXTT13=
EXTT14=
EXTT15=
EXTT16=
EXTT17=
PLAYORDER=
